<mxfile host="app.diagrams.net" version="26.2.13">
  <diagram name="User Reported Incidents BPMN" id="UserReportedIncidentsDiagram">
    <mxGraphModel dx="1420" dy="700" grid="1" gridSize="10" guides="1" tooltips="1" connect="1" arrows="1" fold="1" page="1" pageScale="1" pageWidth="850" pageHeight="1100" background="none" math="0" shadow="0">
      <root>
        <mxCell id="0"/>
        <mxCell id="1" parent="0"/>
        
        <!-- Swimlane: User Reported Incidents -->
        <mxCell id="lane3" value="User Reported Incidents" style="swimlane;horizontal=0;html=1;" vertex="1" parent="1">
          <mxGeometry x="80" y="480" width="1000" height="220" as="geometry"/>
        </mxCell>

        <mxCell id="start3" value="Start" style="ellipse;whiteSpace=wrap;html=1;aspect=fixed;" vertex="1" parent="lane3">
          <mxGeometry x="20" y="100" width="40" height="40" as="geometry"/>
        </mxCell>

        <mxCell id="openReport" value="Tap 'Report' Button" style="rounded=1;whiteSpace=wrap;html=1;" vertex="1" parent="lane3">
          <mxGeometry x="100" y="90" width="140" height="60" as="geometry"/>
        </mxCell>

        <mxCell id="chooseType" value="Choose Incident Type (Traffic, Police, Hazard, etc.)" style="rounded=1;whiteSpace=wrap;html=1;" vertex="1" parent="lane3">
          <mxGeometry x="270" y="90" width="240" height="60" as="geometry"/>
        </mxCell>

        <mxCell id="submitReport" value="Add Details & Submit" style="rounded=1;whiteSpace=wrap;html=1;" vertex="1" parent="lane3">
          <mxGeometry x="540" y="90" width="160" height="60" as="geometry"/>
        </mxCell>

        <mxCell id="end3" value="Incident Logged" style="ellipse;whiteSpace=wrap;html=1;aspect=fixed;" vertex="1" parent="lane3">
          <mxGeometry x="740" y="100" width="40" height="40" as="geometry"/>
        </mxCell>

        <!-- Edges -->
        <mxCell id="e10" style="endArrow=block;" edge="1" parent="lane3" source="start3" target="openReport"/>
        <mxCell id="e11" style="endArrow=block;" edge="1" parent="lane3" source="openReport" target="chooseType"/>
        <mxCell id="e12" style="endArrow=block;" edge="1" parent="lane3" source="chooseType" target="submitReport"/>
        <mxCell id="e13" style="endArrow=block;" edge="1" parent="lane3" source="submitReport" target="end3"/>
      </root>
    </mxGraphModel>
  </diagram>
</mxfile>
